<?xml version="1.0" encoding="UTF-8"?>
<svg width="64px" height="41px" viewBox="0 0 64 41" version="1.1" xmlns="http://www.w3.org/2000/svg" xmlns:xlink="http://www.w3.org/1999/xlink">
    <!-- Generator: Sketch 64 (93537) - https://sketch.com -->
    <title>Group 4</title>
    <desc>Created with Sketch.</desc>
    <g id="处方审核" stroke="none" stroke-width="1" fill="none" fill-rule="evenodd">
        <g id="1-待审核/暂无数据" transform="translate(-808.000000, -387.000000)">
            <g id="编组" transform="translate(808.000000, 388.000000)">
                <g id="Group-4">
                    <path d="M32,40 C49.673112,40 64,36.8659932 64,33 C64,29.1340068 49.673112,26 32,26 C20.9097284,26 11.1371469,27.2341224 5.39566971,29.1088079 C1.98770739,30.2215629 0,31.5600037 0,33 C0,36.8659932 14.326888,40 32,40 Z" id="Oval" fill="#F5F5F5"></path>
                    <g id="Group-3" transform="translate(9.000000, 0.000000)" fill-rule="nonzero" stroke="#D9D9D9">
                        <path d="M46,12.7605604 L35.8543047,1.25739633 C35.3674414,0.473826605 34.6558789,0 33.9067617,0 L12.0932383,0 C11.3441211,0 10.6325586,0.473950255 10.1456953,1.25739633 L0,12.7605604 L0,22 L46,22 L46,12.7605604 Z" id="Shape"></path>
                        <path d="M11.1603008,13 C12.3930469,13 13.3867188,14.3228085 13.3867188,15.9284574 L13.3867188,15.9284574 L13.3867188,15.9496383 C13.3867188,17.5552872 14.3917109,18.8511809 15.624457,18.8511809 L15.624457,18.8511809 L30.375543,18.8511809 C31.6082891,18.8511809 32.6132813,17.5433511 32.6132813,15.9377021 L32.6132813,15.9377021 C32.6132813,14.3258511 33.6069531,13.000234 34.8396992,13 L34.8396992,13 L46,13 L46,31.1371277 C46,33.2589574 44.6793867,35 43.0504297,35 L43.0504297,35 L2.94957031,35 C1.32052344,35 0,33.2588404 0,31.1371277 L0,31.1371277 L0,13 Z" id="Combined-Shape" fill="#FAFAFA"></path>
                    </g>
                </g>
            </g>
        </g>
    </g>
</svg>