<svg xmlns="http://www.w3.org/2000/svg" xmlns:xlink="http://www.w3.org/1999/xlink" viewBox="0 0 600 620"><defs><style>.cls-1{fill:#71e1c5;}.cls-2{fill:#4fd7b6;fill-rule:evenodd;}.cls-3,.cls-4{isolation:isolate;}.cls-4{font-size:14px;font-family:PingFangSC-Regular-GBpc-EUC-H, PingFang SC;}.cls-4,.cls-5{fill:#fff;}.cls-6{fill:url(#未命名的渐变_48);}</style><linearGradient id="未命名的渐变_48" x1="217.91" y1="265.24" x2="273.18" y2="265.24" gradientUnits="userSpaceOnUse"><stop offset="0" stop-color="#fff"/><stop offset="0.25" stop-color="#fefefe" stop-opacity="0.99"/><stop offset="0.4" stop-color="#fcfcfc" stop-opacity="0.96"/><stop offset="0.52" stop-color="#f8f8f8" stop-opacity="0.91"/><stop offset="0.63" stop-color="#f3f3f3" stop-opacity="0.84"/><stop offset="0.73" stop-color="#ececec" stop-opacity="0.74"/><stop offset="0.82" stop-color="#e4e4e4" stop-opacity="0.62"/><stop offset="0.91" stop-color="#d9d9d9" stop-opacity="0.48"/><stop offset="0.99" stop-color="#cecece" stop-opacity="0.33"/><stop offset="1" stop-color="#ccc" stop-opacity="0.3"/></linearGradient></defs><title>默认头像资源 2</title><g id="图层_2" data-name="图层 2"><g id="图层_1-2" data-name="图层 1"><rect id="矩形备份-3" class="cls-1" width="600" height="620"/><path id="形状结合" class="cls-2" d="M600,465.9V620H468.86Q504.7,511.09,600,465.9ZM600,0V238.42L598.41,241c-70.94,111.21-347.06,109.9-347.06,109.9S67.92,341.93,0,437.82V174.15Q232.55,169.25,316.41,0H600Z"/><g id="上海壹树医疗科技有限公司" class="cls-3"><text class="cls-4" transform="translate(216 565)">上海壹树医疗科技有限公司</text></g><polygon class="cls-5" points="312.24 233.47 296.71 233.47 296.71 237.49 332.5 237.49 332.5 233.47 316.75 233.47 316.75 231.24 334.37 231.24 334.37 227.21 316.75 227.21 316.75 225.62 312.24 225.62 312.24 227.21 294.93 227.21 294.93 231.24 312.24 231.24 312.24 233.47"/><path class="cls-5" d="M325.07,262h3.65a2.75,2.75,0,0,0,2.75-2.75v-7H297.82v5.83a4,4,0,0,0,3.82,3.95h2.42l1.44,2.45H294.14v3.8h41v-3.8H323.63Zm1.89-3.53H301.78v-2.72H327ZM308.84,262h11.45l-1.44,2.45h-8.57Z"/><path class="cls-5" d="M382.93,233.47h-3.79v-7.85h-4.79v7.85h-6v4h6v16.74a84.19,84.19,0,0,1-3.66-12l-4.8,1.53a46.4,46.4,0,0,0,7.61,12.36l.85-.85v8.87h-5.09v4h3.9a6,6,0,0,0,6-6V237.49h3.79Z"/><path class="cls-5" d="M329.87,239.72H299.39a5.43,5.43,0,0,0-5.44,5.44v4.35h4.51v-5.77H330.8v5.77h4.51v-4.35a5.44,5.44,0,0,0-5.44-5.44"/><rect class="cls-5" x="302.02" y="246.22" width="24.71" height="3.53"/><path class="cls-5" d="M352.74,251.58l1.17-1.17c-4.32-4.77-5.62-7.53-5.76-7.83v-5.25h3.79v-4h-3.79v-7.69h-4.78v7.69h-3.79v4h3.79v.19c-.06,1.11-.67,7.43-7.18,17.09l1.35,1.46s4.11-3.12,5.83-6v18.15h1.87a2.91,2.91,0,0,0,2.91-2.91V249.14a20.05,20.05,0,0,0,4.59,2.44"/><path class="cls-5" d="M366.42,228.56H352.73v4.7h8.33A62.18,62.18,0,0,1,359.5,244c-1.19-2.5-2.3-4.87-3.19-6.8l-4,2.57s2.16,5,5.29,10.75a52.62,52.62,0,0,1-8.17,15.21l1.25,1.62a49.62,49.62,0,0,0,9.58-12.24,49.42,49.42,0,0,0,6.09,8.22l1.66-1.66s-2.55-5.28-5.46-11.34a56.4,56.4,0,0,0,3.91-21.76"/><path class="cls-5" d="M309,273.83h0a6.15,6.15,0,0,0-4.13,2,3.87,3.87,0,0,0-3.69-2.06h0a5.61,5.61,0,0,0-3.65,1.54v-1.22h-2.39l-.05,12.8h2.39l0-9.18a4.63,4.63,0,0,1,3.19-1.81h0a2.37,2.37,0,0,1,2.29,2.7l0,8.31h2.43l0-9.18a4.84,4.84,0,0,1,3.05-1.81h0a2.28,2.28,0,0,1,1.74.71,2.77,2.77,0,0,1,.64,1.92l0,8.39h2.41l0-8.58a4.73,4.73,0,0,0-1.11-3.36,4.18,4.18,0,0,0-3.15-1.21"/><path class="cls-5" d="M338,275.46a5.57,5.57,0,0,0-3.81-1.53h0c-3.42,0-5.56,2.57-5.57,6.73a7.93,7.93,0,0,0,1.35,4.8,5.09,5.09,0,0,0,4.24,2h0a6.17,6.17,0,0,0,3.76-1.39v1h2.4l.07-16.7h-2.4Zm0,8.29a5.24,5.24,0,0,1-3.56,1.54,3,3,0,0,1-2.58-1.38,6,6,0,0,1-.84-3.24c0-2.2.92-4.54,3.45-4.54h0A4.91,4.91,0,0,1,338,277.9Z"/><path class="cls-5" d="M321.32,285.31h0a3.41,3.41,0,0,1-2.48-1,4.17,4.17,0,0,1-1.06-2.84l9.28,0v-1.18a7.15,7.15,0,0,0-1.4-4.46,5.36,5.36,0,0,0-4.38-2h0a5.35,5.35,0,0,0-4.41,2.1,7.63,7.63,0,0,0-1.48,4.67c0,4.18,2.26,6.78,5.94,6.8h0a5.77,5.77,0,0,0,5.62-3.59l.17-.39h-2.44a3.78,3.78,0,0,1-3.36,1.85m-.06-9.3h0a3.47,3.47,0,0,1,3.35,3.45l-6.82,0a3.59,3.59,0,0,1,3.46-3.42"/><path class="cls-5" d="M364,285.31h0a3.4,3.4,0,0,1-2.47-1,4.17,4.17,0,0,1-1.06-2.84l9.28,0v-1.18a7.15,7.15,0,0,0-1.4-4.46,5.36,5.36,0,0,0-4.38-2h0a5.38,5.38,0,0,0-4.42,2.1,7.69,7.69,0,0,0-1.47,4.67c0,4.18,2.26,6.78,5.94,6.8h0a5.77,5.77,0,0,0,5.63-3.59l.17-.39H367.4a3.78,3.78,0,0,1-3.36,1.85M364,276h0a3.47,3.47,0,0,1,3.34,3.45l-6.81,0A3.59,3.59,0,0,1,364,276"/><path class="cls-5" d="M377.13,285.31h0a3.38,3.38,0,0,1-2.47-1,4.17,4.17,0,0,1-1.06-2.84l9.28,0v-1.18a7.09,7.09,0,0,0-1.39-4.46,5.36,5.36,0,0,0-4.38-2h0a5.38,5.38,0,0,0-4.42,2.1,7.69,7.69,0,0,0-1.47,4.67c0,4.18,2.26,6.78,5.94,6.8h0a5.77,5.77,0,0,0,5.63-3.59l.17-.39h-2.44a3.78,3.78,0,0,1-3.36,1.85m-.06-9.3h0a3.47,3.47,0,0,1,3.34,3.45l-6.82,0a3.61,3.61,0,0,1,3.47-3.42"/><path class="cls-5" d="M349.34,287.15v-2.07h-3.25l0-8.45h3.22v-2.09h-3.22v-3.26h-2.36l0,12.84a3,3,0,0,0,3,3Z"/><path class="cls-5" d="M354.15,276.45h3.55v-2.06h-2.88a3,3,0,0,0-3,3l0,9.73h2.36Z"/><circle class="cls-5" cx="266.25" cy="231.95" r="7.77"/><circle class="cls-5" cx="224.84" cy="231.95" r="7.77"/><path class="cls-5" d="M266,243.66a7.22,7.22,0,0,0-7.22,7.21v28.72h0a7.22,7.22,0,0,0,14.44,0V250.88h0A7.2,7.2,0,0,0,266,243.66Z"/><path class="cls-6" d="M273.14,250.16a1.76,1.76,0,0,0,0-.34,3.09,3.09,0,0,0-.12-.59,4.23,4.23,0,0,0-.27-.88,3.94,3.94,0,0,0-.22-.55,1.86,1.86,0,0,0-.1-.2,1.67,1.67,0,0,0-.23-.39,3.48,3.48,0,0,0-.22-.36,6.71,6.71,0,0,0-1.14-1.32,5.08,5.08,0,0,0-.57-.47,4.2,4.2,0,0,0-.49-.33,8.07,8.07,0,0,0-1-.51.07.07,0,0,1-.06,0,7.85,7.85,0,0,0-1.66-.46l-.55-.06a8.34,8.34,0,0,0-1,0,1.56,1.56,0,0,0-.37,0,6.64,6.64,0,0,0-1.54.36l-.15.06a3.86,3.86,0,0,0-.69.29,5.3,5.3,0,0,0-.73.42,6.24,6.24,0,0,0-1.42,1.2,5.06,5.06,0,0,0-.41.49l-.06.08a18.11,18.11,0,0,1-29,.19l-.14-.17a7.22,7.22,0,0,0-13,4.26V279.6a7.22,7.22,0,1,0,14.44,0v-14a32.28,32.28,0,0,0,26.39,0h0a32.34,32.34,0,0,0,13-10.46,7.11,7.11,0,0,0,1.4-4.27C273.18,250.65,273.16,250.39,273.14,250.16Z"/></g></g></svg>