<?xml version="1.0" encoding="UTF-8"?>
<svg width="57px" height="63px" viewBox="0 0 57 63" version="1.1" xmlns="http://www.w3.org/2000/svg" xmlns:xlink="http://www.w3.org/1999/xlink">
    <!-- Generator: Sketch 64 (93537) - https://sketch.com -->
    <title>ACAE36FF-7CAA-4BF9-A029-6A245AC389EA</title>
    <desc>Created with Sketch.</desc>
    <defs>
        <linearGradient x1="-0.162954684%" y1="49.971023%" x2="99.9093276%" y2="49.971023%" id="linearGradient-1">
            <stop stop-color="#FFFFFF" offset="0%"></stop>
            <stop stop-color="#FEFEFE" stop-opacity="0.99" offset="25%"></stop>
            <stop stop-color="#FCFCFC" stop-opacity="0.96" offset="40%"></stop>
            <stop stop-color="#F8F8F8" stop-opacity="0.91" offset="52%"></stop>
            <stop stop-color="#F3F3F3" stop-opacity="0.84" offset="63%"></stop>
            <stop stop-color="#ECECEC" stop-opacity="0.74" offset="73%"></stop>
            <stop stop-color="#E4E4E4" stop-opacity="0.62" offset="82%"></stop>
            <stop stop-color="#D9D9D9" stop-opacity="0.48" offset="91%"></stop>
            <stop stop-color="#CECECE" stop-opacity="0.33" offset="99%"></stop>
            <stop stop-color="#CCCCCC" stop-opacity="0.3" offset="100%"></stop>
        </linearGradient>
    </defs>
    <g id="控件" stroke="none" stroke-width="1" fill="none" fill-rule="evenodd">
        <g id="1.通用/2.Icon图标/Line/壹树图标" fill-rule="nonzero">
            <g id="壹树图标">
                <circle id="椭圆形" fill="#FFFFFF" cx="49.18" cy="7.77" r="7.77"></circle>
                <circle id="椭圆形" fill="#FFFFFF" cx="7.77" cy="7.77" r="7.77"></circle>
                <path d="M48.93,19.4799721 C44.9464061,19.4799721 41.7155174,22.7064099 41.71,26.69 L41.71,55.41 L41.71,55.41 C41.71,59.3974959 44.9425041,62.63 48.93,62.63 C52.9174959,62.63 56.1500279,59.3974959 56.1500279,55.41 L56.1500279,26.7 L56.1500279,26.7 C56.155331,24.7835076 55.3963667,22.9439733 54.0411967,21.5888033 C52.6860267,20.2336333 50.8464924,19.474669 48.93,19.4799721 L48.93,19.4799721 Z" id="路径" fill="#FFFFFF"></path>
                <path d="M56.07,25.98 C56.0809726,25.8669323 56.0809726,25.7530677 56.07,25.64 C56.0493011,25.439896 56.0091103,25.2422915 55.95,25.05 C55.8922791,24.7477184 55.8017432,24.4526384 55.68,24.17 C55.6205719,23.9814059 55.5470308,23.797553 55.46,23.62 C55.4307077,23.5513882 55.3973141,23.4846009 55.36,23.42 C55.3013933,23.2801617 55.2240156,23.1489561 55.13,23.03 C55.064015,22.905661 54.9905467,22.7854402 54.91,22.67 C54.5890466,22.1822768 54.2058099,21.738529 53.77,21.35 C53.5916589,21.1797068 53.4011553,21.0226249 53.2,20.88 C53.0446149,20.7586351 52.8808766,20.6483624 52.71,20.55 C52.3889086,20.3569945 52.0547671,20.1865824 51.71,20.04 C51.6910138,20.0490059 51.6689862,20.0490059 51.65,20.04 C51.1152162,19.8262371 50.5585322,19.6719752 49.99,19.58 L49.44,19.52 C49.1069667,19.499998 48.7730333,19.499998 48.44,19.52 C48.3171034,19.5049985 48.1928966,19.5049985 48.07,19.52 C47.5441579,19.5782202 47.0271584,19.6990772 46.53,19.88 L46.38,19.94 C46.1411489,20.014087 45.9100629,20.1112101 45.69,20.23 C45.4359109,20.3504142 45.1918071,20.4908575 44.96,20.65 C44.4294001,20.976848 43.9507556,21.3813363 43.54,21.85 C43.3931478,22.0045335 43.2562082,22.168193 43.13,22.34 L43.07,22.42 C39.6807038,27.0121689 34.3249263,29.7378855 28.6175673,29.7752785 C22.9102084,29.8126716 17.5191759,27.1573651 14.07,22.61 L13.93,22.44 C12.0743608,19.960683 8.84425522,18.9408866 5.9013939,19.9052396 C2.95853257,20.8695926 0.958418589,23.6032918 0.93,26.7 L0.93,55.42 C0.93,59.4074959 4.16250411,62.64 8.15,62.64 C12.1374959,62.64 15.37,59.4074959 15.37,55.42 L15.37,41.42 C23.7648722,45.1800277 33.3651278,45.1800277 41.76,41.42 L41.76,41.42 C46.9336831,39.1304832 51.4162151,35.5237689 54.76,30.96 C55.6760092,29.725443 56.1672186,28.2272546 56.1600784,26.69 C56.11,26.47 56.09,26.21 56.07,25.98 Z" id="路径" fill="url(#linearGradient-1)"></path>
            </g>
        </g>
    </g>
</svg>