<?xml version="1.0" encoding="UTF-8"?>
<svg width="16px" height="16px" viewBox="0 0 16 16" version="1.1" xmlns="http://www.w3.org/2000/svg" xmlns:xlink="http://www.w3.org/1999/xlink">
    <!-- Generator: Sketch 64 (93537) - https://sketch.com -->
    <title>CDD54504-D1EB-4A28-9103-6439AB98ED1C</title>
    <desc>Created with Sketch.</desc>
    <g id="-" stroke="none" stroke-width="1" fill="none" fill-rule="evenodd">
        <g id="1.通用/2.Icon图标/Line/成功圈">
            <rect id="矩形" fill="#000000" fill-rule="nonzero" opacity="0" x="0" y="0" width="16" height="16"></rect>
            <path d="M8,1 C11.865625,1 15,4.134375 15,8 C15,11.865625 11.865625,15 8,15 C4.134375,15 1,11.865625 1,8 C1,4.134375 4.134375,1 8,1 Z M8,2.1875 C4.790625,2.1875 2.1875,4.790625 2.1875,8 C2.1875,11.209375 4.790625,13.8125 8,13.8125 C11.209375,13.8125 13.8125,11.209375 13.8125,8 C13.8125,4.790625 11.209375,2.1875 8,2.1875 Z M10.921875,5.515625 C11.0234375,5.515625 11.0828125,5.63125 11.021875,5.7140625 L11.021875,5.7140625 L7.73125,10.2765625 C7.5328125,10.553125 7.121875,10.553125 6.9234375,10.2765625 L6.9234375,10.2765625 L4.9765625,7.5765625 C4.9171875,7.49375 4.9765625,7.378125 5.078125,7.378125 L5.078125,7.378125 L5.8109375,7.378125 C5.971875,7.378125 6.121875,7.45625 6.215625,7.5859375 L6.215625,7.5859375 L7.328125,9.1296875 L9.784375,5.7234375 C9.878125,5.5921875 10.0296875,5.515625 10.1890625,5.515625 L10.1890625,5.515625 Z" id="形状结合" fill="#12CD9F"></path>
        </g>
    </g>
</svg>